<?xml version="1.0" encoding="UTF-8" standalone="no"?><!DOCTYPE svg PUBLIC "-//W3C//DTD SVG 1.1//EN" "http://www.w3.org/Graphics/SVG/1.1/DTD/svg11.dtd"><svg width="100%" height="100%" viewBox="0 0 512 512" version="1.1" xmlns="http://www.w3.org/2000/svg" xmlns:xlink="http://www.w3.org/1999/xlink" xml:space="preserve" xmlns:serif="http://www.serif.com/" style="fill-rule:evenodd;clip-rule:evenodd;stroke-linejoin:round;stroke-miterlimit:2;"><path d="M37.274,256c-0,-120.812 97.914,-218.726 218.726,-218.726c120.812,-0 218.726,97.914 218.726,218.726c0,120.812 -97.914,218.726 -218.726,218.726c-120.812,0 -218.726,-97.914 -218.726,-218.726Zm317.665,-37.764c9.313,-9.313 9.313,-24.522 0,-33.835c-9.313,-9.313 -24.521,-9.313 -33.834,0l-92.446,92.446l-37.764,-37.764c-9.313,-9.313 -24.521,-9.313 -33.834,-0c-9.313,9.313 -9.313,24.521 -0,33.834l54.681,54.682c9.313,9.313 24.521,9.313 33.834,-0l109.363,-109.363Z" style="fill:#00c805;fill-rule:nonzero;"/><circle cx="256" cy="256" r="256" style="fill:none;"/></svg>